<svg xmlns="http://www.w3.org/2000/svg" xmlns:xlink="http://www.w3.org/1999/xlink" width="50" zoomAndPan="magnify" viewBox="0 0 37.5 17.04" height="22.72" preserveAspectRatio="xMidYMid meet" version="1.0"><defs><clipPath id="1a45304c66"><path d="M8.885 0.004h19.724V14.2H8.885Zm0 0" clip-rule="nonzero"/></clipPath><clipPath id="4e04fc0061"><path d="M15.659 13.731h6.149v3.305H15.659Zm0 0" clip-rule="nonzero"/></clipPath><clipPath id="63b6f323e2"><path d="M13.601 16.571h10.266v0.465H13.601Zm0 0" clip-rule="nonzero"/></clipPath></defs><path fill="#ffcb5b" d="M24.648 7.498c0.162 -0.15 0.37 -0.254 0.6 -0.254 0.473 0 0.866 0.393 0.866 0.854v0.843c0 0.774 -0.958 1.155 -1.478 0.589 -0.15 -0.15 -0.243 -0.358 -0.243 -0.589v-0.843c0 -0.231 0.104 -0.439 0.254 -0.6m-1.998 0.15c-0.3 0 -0.3 -0.462 0 -0.462 0.381 0 0.808 -0.081 0.808 0.231v2.09c0 0.3 -0.462 0.3 -0.462 0v-1.859Zm-1.975 -0.45c0.381 0 0.808 -0.081 0.808 0.231v2.09c0 0.312 -0.462 0.312 -0.462 0v-1.859H20.675c-0.3 0 -0.3 -0.462 0 -0.462m-1.166 0.254v2.09c0 0.3 -0.462 0.3 -0.462 0v-1.859h-0.346c-0.3 0 -0.3 -0.462 0 -0.462 0.381 0 0.808 -0.081 0.808 0.231m-1.975 0.011v2.09c0 0.3 -0.462 0.3 -0.462 0v-1.859h-0.346c-0.3 0 -0.3 -0.462 0 -0.462 0.381 0 0.808 -0.081 0.808 0.231m-1.975 2.032c0 0.3 -0.462 0.3 -0.462 0v-1.859H14.751c-0.3 0 -0.3 -0.462 0 -0.462 0.369 0 0.808 -0.081 0.808 0.231ZM13.597 1.898v9.468h13.107V1.898ZM23.47 5.778v-1.859h-0.346c-0.3 0 -0.3 -0.462 0 -0.462 0.381 0 0.808 -0.081 0.808 0.231v2.09c0 0.312 -0.462 0.312 -0.462 0m1.49 -1.859c-0.3 0 -0.3 -0.462 0 -0.462 0.381 0 0.808 -0.081 0.808 0.231v2.09c0 0.312 -0.462 0.312 -0.462 0v-1.859Zm-3.118 1.847c-0.543 0.531 -1.467 0.15 -1.467 -0.612V4.311c0 -0.231 0.104 -0.45 0.254 -0.6 0.162 -0.15 0.37 -0.254 0.6 -0.254 0.473 0 0.866 0.393 0.866 0.854v0.843c0 0.381 -0.254 0.6 -0.254 0.612m-2.263 -2.078v2.09c0 0.312 -0.462 0.312 -0.462 0v-1.859H18.77c-0.3 0 -0.3 -0.462 0 -0.462 0.37 0 0.808 -0.081 0.808 0.231m-1.848 0v2.09c0 0.312 -0.462 0.312 -0.462 0v-1.859H16.922c-0.3 0 -0.3 -0.462 0 -0.462 0.381 0 0.808 -0.081 0.808 0.231m-2.691 -0.231c0.473 0 0.855 0.393 0.855 0.854v0.843c0 0.381 -0.254 0.6 -0.254 0.612 -0.543 0.543 -1.455 0.139 -1.455 -0.612V4.311c0 -0.462 0.381 -0.854 0.855 -0.854m0 0" fill-opacity="1" fill-rule="evenodd"/><path fill="#0e9aa7" d="M27.939 11.828H9.151v1.72c0 0.208 0.173 0.381 0.381 0.381h18.026c0.208 0 0.381 -0.173 0.381 -0.381Zm-15.266 1.051c0 0.312 -0.427 0.231 -0.785 0.231 -0.312 0 -0.312 -0.462 0 -0.462 0.358 0 0.785 -0.081 0.785 0.231m-1.64 0c0 0.312 -0.427 0.231 -0.785 0.231 -0.312 0 -0.312 -0.462 0 -0.462 0.358 0 0.785 -0.081 0.785 0.231m0 0" fill-opacity="1" fill-rule="evenodd"/><path fill="#fe6f69" d="M15.941 14.392H21.149v2.367H15.941Zm0 0" fill-opacity="1" fill-rule="evenodd"/><path fill="#ced07d" d="M27.165 1.667v9.699h0.774V1.044c0 -0.219 -0.173 -0.381 -0.381 -0.381H9.532c-0.208 0 -0.381 0.162 -0.381 0.381v10.323h0.785V1.667c0 -0.127 0.092 -0.231 0.231 -0.231h16.767c0.127 0 0.231 0.104 0.231 0.231m0 0" fill-opacity="1" fill-rule="evenodd"/><path fill="#ffcb5b" d="M25.652 8.099c0 -0.208 -0.185 -0.393 -0.404 -0.393 -0.104 0 -0.196 0.046 -0.277 0.115 -0.023 0 -0.116 0.15 -0.116 0.277v0.843c0 0.52 0.797 0.531 0.797 0Zm0 0" fill-opacity="1" fill-rule="evenodd"/><path fill="#ffcb5b" d="M21.634 5.154V4.311c0 -0.219 -0.185 -0.393 -0.404 -0.393 -0.104 0 -0.196 0.046 -0.277 0.115 -0.023 0 -0.115 0.139 -0.115 0.277v0.843c0 0.346 0.427 0.531 0.681 0.277 0.069 -0.069 0.115 -0.162 0.115 -0.277m0 0" fill-opacity="1" fill-rule="evenodd"/><path fill="#ffcb5b" d="M15.433 5.154V4.311c0 -0.219 -0.173 -0.393 -0.393 -0.393 -0.219 0 -0.393 0.173 -0.393 0.393v0.843c0 0.346 0.416 0.531 0.67 0.277 0.069 -0.069 0.116 -0.162 0.116 -0.277m0 0" fill-opacity="1" fill-rule="evenodd"/><path fill="#fe6f69" d="M13.135 11.366V1.898H10.398v9.468Zm-0.993 -5.669c0.3 0 0.3 0.462 0 0.462h-0.762c-0.3 0 -0.3 -0.462 0 -0.462Zm-0.762 1.409h0.762c0.3 0 0.3 0.462 0 0.462h-0.762c-0.3 0 -0.3 -0.462 0 -0.462m0 1.409h0.762c0.3 0 0.3 0.462 0 0.462h-0.762c-0.3 0 -0.3 -0.462 0 -0.462m0 1.871c-0.3 0 -0.3 -0.462 0 -0.462h0.762c0.3 0 0.3 0.462 0 0.462Zm0 -6.097h0.762c0.3 0 0.3 0.462 0 0.462h-0.762c-0.3 0 -0.3 -0.462 0 -0.462m0.762 -1.409c0.3 0 0.3 0.462 0 0.462h-0.762c-0.3 0 -0.3 -0.462 0 -0.462Zm0 0" fill-opacity="1" fill-rule="evenodd"/><g clip-path="url(#1a45304c66)"><path fill="#333333" d="M9.728 0.004h18.026c0.462 0 0.843 0.381 0.843 0.843v12.505c0 0.462 -0.381 0.843 -0.843 0.843H9.728c-0.462 0 -0.843 -0.381 -0.843 -0.843V0.847c0 -0.462 0.381 -0.843 0.843 -0.843m18.026 0.462H9.728c-0.208 0 -0.381 0.173 -0.381 0.381v12.505c0 0.208 0.173 0.381 0.381 0.381h18.026c0.208 0 0.381 -0.173 0.381 -0.381V0.847c0 -0.208 -0.173 -0.381 -0.381 -0.381m0 0" fill-opacity="1" fill-rule="nonzero"/></g><path fill="#333333" d="M10.583 11.401c0 0.312 -0.462 0.312 -0.462 0V1.471c0 -0.127 0.104 -0.231 0.231 -0.231h16.767c0.139 0 0.231 0.104 0.231 0.231v9.93c0 0.312 -0.462 0.312 -0.462 0V1.702H10.583Zm0 0" fill-opacity="1" fill-rule="nonzero"/><g clip-path="url(#4e04fc0061)"><path fill="#333333" d="M15.906 13.733h5.67c0.127 0 0.231 0.104 0.231 0.231v2.84c0 0.127 -0.104 0.231 -0.231 0.231H15.906c-0.127 0 -0.231 -0.104 -0.231 -0.231V13.964c0 -0.127 0.104 -0.231 0.231 -0.231m5.439 0.462H16.137v2.379h5.208Zm0 0" fill-opacity="1" fill-rule="nonzero"/></g><g clip-path="url(#63b6f323e2)"><path fill="#333333" d="M13.851 17.036c-0.3 0 -0.3 -0.462 0 -0.462h9.769c0.312 0 0.312 0.462 0 0.462Zm0 0" fill-opacity="1" fill-rule="nonzero"/></g><path fill="#333333" d="M9.116 11.632c-0.3 0 -0.3 -0.462 0 -0.462h19.25c0.3 0 0.3 0.462 0 0.462Zm0 0" fill-opacity="1" fill-rule="nonzero"/><path fill="#333333" d="M10.433 12.914c-0.3 0 -0.3 -0.462 0 -0.462 0.37 0 0.785 -0.081 0.785 0.231s-0.416 0.231 -0.785 0.231m0 0" fill-opacity="1" fill-rule="nonzero"/><path fill="#333333" d="M12.072 12.914c-0.3 0 -0.3 -0.462 0 -0.462 0.37 0 0.785 -0.081 0.785 0.231s-0.416 0.231 -0.785 0.231m0 0" fill-opacity="1" fill-rule="nonzero"/><path fill="#333333" d="M13.32 1.471c0 -0.3 0.462 -0.3 0.462 0v9.93c0 0.312 -0.462 0.312 -0.462 0Zm0 0" fill-opacity="1" fill-rule="nonzero"/><path fill="#333333" d="M11.576 3.145c-0.312 0 -0.312 -0.462 0 -0.462h0.762c0.3 0 0.3 0.462 0 0.462Zm0 0" fill-opacity="1" fill-rule="nonzero"/><path fill="#333333" d="M11.576 4.554c-0.312 0 -0.312 -0.462 0 -0.462h0.762c0.3 0 0.3 0.462 0 0.462Zm0 0" fill-opacity="1" fill-rule="nonzero"/><path fill="#333333" d="M11.576 5.962c-0.312 0 -0.312 -0.462 0 -0.462h0.762c0.3 0 0.3 0.462 0 0.462Zm0 0" fill-opacity="1" fill-rule="nonzero"/><path fill="#333333" d="M11.576 7.371c-0.312 0 -0.312 -0.462 0 -0.462h0.762c0.3 0 0.3 0.462 0 0.462Zm0 0" fill-opacity="1" fill-rule="nonzero"/><path fill="#333333" d="M11.576 8.78c-0.312 0 -0.312 -0.462 0 -0.462h0.762c0.3 0 0.3 0.462 0 0.462Zm0 0" fill-opacity="1" fill-rule="nonzero"/><path fill="#333333" d="M11.576 10.189c-0.312 0 -0.312 -0.462 0 -0.462h0.762c0.3 0 0.3 0.462 0 0.462Zm0 0" fill-opacity="1" fill-rule="nonzero"/><path fill="#333333" d="M15.236 3.272c0.462 0 0.855 0.381 0.855 0.854v0.843c0 0.381 -0.254 0.589 -0.254 0.6 -0.543 0.543 -1.467 0.15 -1.467 -0.6V4.127c0 -0.473 0.393 -0.854 0.866 -0.854m0 0.462c-0.219 0 -0.404 0.173 -0.404 0.393v0.843c0 0.346 0.427 0.52 0.681 0.277 0.069 -0.081 0.115 -0.173 0.115 -0.277V4.127c0 -0.219 -0.185 -0.393 -0.393 -0.393m0 0" fill-opacity="1" fill-rule="nonzero"/><path fill="#333333" d="M17.119 3.734c-0.3 0 -0.3 -0.462 0 -0.462 0.381 0 0.808 -0.092 0.808 0.231v2.09c0 0.3 -0.462 0.3 -0.462 0v-1.859Zm0 0" fill-opacity="1" fill-rule="nonzero"/><path fill="#333333" d="M18.966 3.734c-0.312 0 -0.312 -0.462 0 -0.462 0.37 0 0.808 -0.092 0.808 0.231v2.09c0 0.3 -0.462 0.3 -0.462 0v-1.859Zm0 0" fill-opacity="1" fill-rule="nonzero"/><path fill="#333333" d="M21.426 3.272c0.473 0 0.855 0.381 0.855 0.854v0.843c0 0.381 -0.254 0.589 -0.254 0.6 -0.531 0.543 -1.455 0.15 -1.455 -0.6V4.127c0 -0.243 0.092 -0.45 0.254 -0.612 0.15 -0.15 0.37 -0.242 0.6 -0.242m0 0.462c-0.104 0 -0.208 0.035 -0.277 0.115 -0.023 0 -0.116 0.139 -0.116 0.277v0.843c0 0.335 0.416 0.52 0.67 0.277 0.069 -0.081 0.116 -0.173 0.116 -0.277V4.127c0 -0.219 -0.173 -0.393 -0.393 -0.393m0 0" fill-opacity="1" fill-rule="nonzero"/><path fill="#333333" d="M23.32 3.734c-0.312 0 -0.312 -0.462 0 -0.462 0.37 0 0.808 -0.092 0.808 0.231v2.09c0 0.3 -0.462 0.3 -0.462 0v-1.859Zm0 0" fill-opacity="1" fill-rule="nonzero"/><path fill="#333333" d="M25.156 3.734c-0.3 0 -0.3 -0.462 0 -0.462 0.381 0 0.808 -0.092 0.808 0.231v2.09c0 0.3 -0.462 0.3 -0.462 0v-1.859Zm0 0" fill-opacity="1" fill-rule="nonzero"/><path fill="#333333" d="M14.948 7.44c-0.312 0 -0.312 -0.462 0 -0.462 0.37 0 0.808 -0.081 0.808 0.231v2.09c0 0.3 -0.462 0.3 -0.462 0v-1.859Zm0 0" fill-opacity="1" fill-rule="nonzero"/><path fill="#333333" d="M16.922 7.498c-0.312 0 -0.312 -0.462 0 -0.462 0.37 0 0.808 -0.081 0.808 0.231v2.09c0 0.312 -0.462 0.312 -0.462 0v-1.859Zm0 0" fill-opacity="1" fill-rule="nonzero"/><path fill="#333333" d="M18.897 7.487c-0.312 0 -0.312 -0.462 0 -0.462 0.37 0 0.808 -0.081 0.808 0.231v2.09c0 0.3 -0.462 0.3 -0.462 0v-1.859Zm0 0" fill-opacity="1" fill-rule="nonzero"/><path fill="#333333" d="M20.872 7.475c-0.312 0 -0.312 -0.462 0 -0.462 0.37 0 0.808 -0.081 0.808 0.231v2.09c0 0.3 -0.462 0.3 -0.462 0v-1.859Zm0 0" fill-opacity="1" fill-rule="nonzero"/><path fill="#333333" d="M22.846 7.452c-0.3 0 -0.3 -0.462 0 -0.462 0.37 0 0.808 -0.081 0.808 0.231v2.09c0 0.312 -0.462 0.312 -0.462 0v-1.859Zm0 0" fill-opacity="1" fill-rule="nonzero"/><path fill="#333333" d="M25.445 7.059c0.473 0 0.855 0.381 0.855 0.854v0.843c0 0.762 -0.947 1.143 -1.467 0.589 -0.15 -0.162 -0.242 -0.37 -0.242 -0.589v-0.843c0 -0.242 0.092 -0.45 0.254 -0.612 0.15 -0.15 0.37 -0.242 0.6 -0.242m0 0.462c-0.104 0 -0.208 0.046 -0.277 0.115 -0.023 0 -0.116 0.139 -0.116 0.277v0.843c0 0.508 0.785 0.52 0.785 0v-0.843c0 -0.219 -0.173 -0.393 -0.393 -0.393m0 0" fill-opacity="1" fill-rule="nonzero"/></svg>