<svg xmlns="http://www.w3.org/2000/svg" xmlns:xlink="http://www.w3.org/1999/xlink" width="50" zoomAndPan="magnify" viewBox="0 0 37.5 17.04" height="22.72" preserveAspectRatio="xMidYMid meet" version="1.0"><path fill="#fa4954" d="M18.8 4.958c-1 -1.953 -2.664 -3.549 -4.717 -4.341C12.99 0.198 11.756 0.006 10.591 0.141c-0.554 0.061 -1.207 0.196 -1.63 0.596 -0.042 0.038 -0.085 0.085 -0.127 0.127 -0.284 0.042 -0.534 0.231 -0.615 0.604 -0.254 1.165 -0.342 2.407 -0.415 3.595 -0.073 1.211 -0.123 2.43 -0.104 3.645 0.019 1.184 0.065 2.368 0.142 3.552 0.038 0.592 0.081 1.18 0.135 1.772 0.042 0.484 0.015 1.088 0.211 1.561 -0.1 0.208 -0.111 0.461 0.015 0.665 0.385 0.607 1.088 0.669 1.749 0.631 0.604 -0.035 1.207 -0.081 1.807 -0.15 1.223 -0.142 2.403 -0.388 3.537 -0.873C17.196 15.058 18.846 13.582 19.553 11.609c0.75 -2.095 0.234 -4.717 -0.754 -6.651m-1.103 5.936c-0.465 1.403 -1.761 2.449 -3.08 3.022 -0.934 0.408 -2.003 0.634 -3.022 0.773 -0.431 0.058 -0.861 0.092 -1.296 0.119 -0.019 -0.231 -0.05 -0.461 -0.069 -0.688a68.76 68.76 0 0 1 -0.138 -1.772c-0.077 -1.184 -0.127 -2.368 -0.146 -3.552 -0.019 -1.157 -0.054 -2.311 -0.046 -3.464 0.004 -1.061 0.05 -2.138 0.012 -3.203 0.342 -0.127 0.642 -0.212 1.011 -0.219 0.861 -0.015 1.722 0.154 2.514 0.492 1.592 0.68 2.83 1.872 3.587 3.422 0.73 1.488 1.211 3.453 0.673 5.071m10.261 5.898c-0.519 -0.115 -0.915 -0.565 -1.315 -0.919a29.911 29.911 0 0 1 -0.884 -0.827 23.319 23.319 0 0 1 -0.434 -0.434 23.319 23.319 0 0 1 -0.434 0.434c-0.288 0.284 -0.584 0.557 -0.884 0.827 -0.4 0.358 -0.796 0.804 -1.315 0.919 -1.073 0.242 -1.842 -0.892 -1.369 -1.957 0.196 -0.446 0.584 -0.707 0.919 -1.019 0.292 -0.277 0.584 -0.558 0.865 -0.846 0.146 -0.146 0.288 -0.296 0.427 -0.446 -0.361 -0.473 -0.715 -0.961 -1.042 -1.461 -0.461 -0.704 -0.992 -1.484 -1.253 -2.307 -0.384 -1.23 1.1 -1.972 1.872 -1.196 0.296 0.296 0.515 0.704 0.765 1.05 0.223 0.308 0.457 0.607 0.688 0.911a31.084 31.084 0 0 0 0.757 0.965c0.258 -0.315 0.507 -0.638 0.757 -0.965 0.231 -0.304 0.461 -0.604 0.688 -0.911 0.25 -0.346 0.469 -0.75 0.765 -1.05 0.773 -0.777 2.261 -0.031 1.872 1.196 -0.258 0.823 -0.788 1.603 -1.253 2.307 -0.327 0.5 -0.681 0.988 -1.042 1.461 0.142 0.15 0.285 0.3 0.427 0.446 0.285 0.288 0.573 0.569 0.865 0.846 0.334 0.311 0.723 0.577 0.919 1.019 0.481 1.065 -0.292 2.199 -1.361 1.957m0 0" fill-opacity="1" fill-rule="nonzero"/></svg>