<svg xmlns="http://www.w3.org/2000/svg" xmlns:xlink="http://www.w3.org/1999/xlink" width="50" zoomAndPan="magnify" viewBox="0 0 37.5 17.04" height="22.72" preserveAspectRatio="xMidYMid meet" version="1.0"><defs><clipPath id="322088b8f2"><path d="M10.225 8.183h17.021V8.859H10.225Zm0 0" clip-rule="nonzero"/></clipPath><clipPath id="ad990ad33c"><path d="M25.586 7.66h1.659v1.694H25.586Zm0 0" clip-rule="nonzero"/></clipPath><clipPath id="864a110cc9"><path d="M11.855 0.004h1.694V1.668h-1.694Zm0 0" clip-rule="nonzero"/></clipPath><clipPath id="244f601a52"><path d="M12.35 0.004h0.677v17.021h-0.677Zm0 0" clip-rule="nonzero"/></clipPath></defs><g clip-path="url(#322088b8f2)"><path fill="#f9b017" d="M26.919 8.842H10.552c-0.18 0 -0.327 -0.146 -0.327 -0.327 0 -0.181 0.147 -0.328 0.327 -0.328h16.367c0.18 0 0.327 0.146 0.327 0.328 0 0.18 -0.147 0.327 -0.327 0.327" fill-opacity="1" fill-rule="nonzero"/></g><g clip-path="url(#ad990ad33c)"><path fill="#f9b017" d="M25.924 9.347a0.328 0.328 0 0 1 -0.292 -0.18c-0.081 -0.161 -0.018 -0.359 0.144 -0.44l0.419 -0.212 -0.419 -0.213c-0.161 -0.082 -0.225 -0.279 -0.144 -0.44 0.082 -0.161 0.278 -0.225 0.44 -0.144l0.995 0.505a0.327 0.327 0 0 1 0.18 0.292c0 0.123 -0.07 0.236 -0.18 0.291l-0.995 0.505c-0.048 0.024 -0.098 0.036 -0.148 0.036" fill-opacity="1" fill-rule="nonzero"/></g><g clip-path="url(#864a110cc9)"><path fill="#f9b017" d="M13.198 1.655c-0.119 0 -0.234 -0.066 -0.292 -0.18l-0.212 -0.419 -0.212 0.419c-0.082 0.161 -0.279 0.226 -0.44 0.144 -0.161 -0.081 -0.226 -0.279 -0.145 -0.44L12.401 0.183A0.328 0.328 0 0 1 12.693 0.004a0.328 0.328 0 0 1 0.292 0.18l0.505 0.995c0.082 0.161 0.017 0.359 -0.145 0.44a0.324 0.324 0 0 1 -0.148 0.036" fill-opacity="1" fill-rule="nonzero"/></g><g clip-path="url(#244f601a52)"><path fill="#f9b017" d="M12.693 17.025c-0.181 0 -0.327 -0.147 -0.327 -0.327V0.331c0 -0.18 0.147 -0.327 0.327 -0.327 0.18 0 0.327 0.147 0.327 0.327v16.367c0 0.18 -0.147 0.327 -0.327 0.327" fill-opacity="1" fill-rule="nonzero"/></g><path fill="#f03d49" d="M23.664 10.477c-0.01 0 -0.019 -0.001 -0.029 -0.001 -0.18 -0.016 -0.313 -0.174 -0.298 -0.355 0.045 -0.517 0.067 -1.057 0.067 -1.607 0 -0.181 0.146 -0.328 0.327 -0.328 0.18 0 0.327 0.146 0.327 0.328 0 0.568 -0.023 1.128 -0.069 1.663 -0.015 0.171 -0.158 0.3 -0.326 0.3M22.352 14.106c-1.173 0 -1.708 -2.898 -1.708 -5.591 0 -3.258 -0.737 -4.937 -1.052 -4.937 -0.315 0 -1.053 1.68 -1.053 4.937 0 2.693 -0.534 5.591 -1.708 5.591s-1.708 -2.898 -1.708 -5.591c0 -3.258 -0.737 -4.937 -1.052 -4.937 -0.315 0 -1.053 1.68 -1.053 4.937 0 0.18 -0.147 0.327 -0.327 0.327 -0.181 0 -0.327 -0.146 -0.327 -0.327 0 -2.694 0.534 -5.592 1.708 -5.592 1.172 0 1.707 2.898 1.707 5.592 0 3.257 0.738 4.937 1.053 4.937s1.053 -1.68 1.053 -4.937c0 -2.694 0.534 -5.592 1.708 -5.592 1.172 0 1.707 2.898 1.707 5.592 0 3.257 0.738 4.937 1.053 4.937 0.145 0 0.552 -0.519 0.823 -2.06 0.031 -0.178 0.201 -0.297 0.379 -0.266 0.178 0.031 0.296 0.201 0.265 0.379 -0.209 1.186 -0.633 2.6 -1.468 2.6" fill-opacity="1" fill-rule="nonzero"/><path fill="#f03d49" d="M23.732 8.842c-0.181 0 -0.327 -0.146 -0.327 -0.327 0 -0.723 0.037 -1.424 0.11 -2.085 0.02 -0.18 0.182 -0.31 0.362 -0.29 0.18 0.02 0.309 0.182 0.289 0.362 -0.071 0.637 -0.107 1.315 -0.107 2.013 0 0.18 -0.146 0.327 -0.327 0.327" fill-opacity="1" fill-rule="nonzero"/><path fill="#5487ce" d="M19.593 10.315c-0.946 0 -1.708 -0.985 -1.708 -1.8 0 -0.453 -0.471 -1.146 -1.053 -1.146 -0.581 0 -1.053 0.693 -1.053 1.146 0 0.815 -0.761 1.8 -1.707 1.8 -0.946 0 -1.708 -0.985 -1.708 -1.8 0 -0.181 0.147 -0.328 0.327 -0.328 0.18 0 0.327 0.146 0.327 0.328 0 0.452 0.471 1.145 1.053 1.145 0.581 0 1.052 -0.693 1.052 -1.145 0 -0.815 0.762 -1.801 1.708 -1.801s1.708 0.986 1.708 1.801c0 0.452 0.471 1.145 1.053 1.145 0.581 0 1.052 -0.693 1.052 -1.145 0 -0.815 0.762 -1.801 1.708 -1.801s1.707 0.986 1.707 1.801c0 0.294 0.208 0.568 0.542 0.714 0.165 0.073 0.241 0.265 0.168 0.431 -0.073 0.165 -0.265 0.241 -0.431 0.169 -0.575 -0.252 -0.933 -0.756 -0.933 -1.314 0 -0.453 -0.472 -1.146 -1.053 -1.146 -0.581 0 -1.053 0.693 -1.053 1.146 0 0.815 -0.761 1.8 -1.707 1.8" fill-opacity="1" fill-rule="nonzero"/><path fill="#f9b017" d="M18.926 8.842h-1.363c-0.181 0 -0.327 -0.146 -0.327 -0.327 0 -0.181 0.146 -0.328 0.327 -0.328h1.363c0.181 0 0.328 0.146 0.328 0.328 0 0.18 -0.146 0.327 -0.328 0.327" fill-opacity="1" fill-rule="nonzero"/><path fill="#f9b017" d="M24.273 8.842h-1.2c-0.18 0 -0.327 -0.146 -0.327 -0.327 0 -0.181 0.147 -0.328 0.327 -0.328h1.2c0.181 0 0.328 0.146 0.328 0.328 0 0.18 -0.147 0.327 -0.328 0.327" fill-opacity="1" fill-rule="nonzero"/><path fill="#ffffff" d="M13.348 8.515c0 0.361 -0.293 0.654 -0.655 0.654s-0.655 -0.293 -0.655 -0.654c0 -0.362 0.293 -0.655 0.655 -0.655s0.655 0.293 0.655 0.655" fill-opacity="1" fill-rule="nonzero"/><path fill="#f9b017" d="M12.693 8.187c-0.181 0 -0.327 0.147 -0.327 0.328 0 0.18 0.147 0.327 0.327 0.327 0.18 0 0.327 -0.146 0.327 -0.327 0 -0.181 -0.147 -0.328 -0.327 -0.328m0 1.309c-0.541 0 -0.982 -0.44 -0.982 -0.982 0 -0.542 0.441 -0.982 0.982 -0.982s0.982 0.441 0.982 0.982c0 0.541 -0.441 0.982 -0.982 0.982" fill-opacity="1" fill-rule="nonzero"/></svg>