<svg xmlns="http://www.w3.org/2000/svg" xmlns:xlink="http://www.w3.org/1999/xlink" width="50" zoomAndPan="magnify" viewBox="0 0 37.5 17.04" height="22.72" preserveAspectRatio="xMidYMid meet" version="1.1" transform="scale(-1 1)"><defs><clipPath id="c44523bbf4"><path d="M12.454 5.393h12.585v11.435H12.454Zm0 0" clip-rule="nonzero"/></clipPath></defs><g clip-path="url(#c44523bbf4)"><path fill="#00adef" d="M23.82 16.83H13.666a1.197 1.197 0 0 1 -1.197 -1.197V6.598a1.197 1.197 0 0 1 2.394 0v7.838h7.76V6.598a1.197 1.197 0 0 1 2.394 0v9.035a1.197 1.197 0 0 1 -1.197 1.197" fill-opacity="1" fill-rule="nonzero"/></g><path fill="#f03e45" d="M26.611 10.584a1.19 1.19 0 0 1 -0.846 -0.351l-7.021 -7.018 -7.021 7.018a1.2 1.2 0 0 1 -1.693 0 1.195 1.195 0 0 1 0 -1.692l7.867 -7.864a1.2 1.2 0 0 1 1.693 0l7.868 7.865a1.195 1.195 0 0 1 -0.847 2.043" fill-opacity="1" fill-rule="nonzero"/><path fill="#fbc508" d="M23.82 7.795a1.197 1.197 0 0 1 -1.197 -1.197V2.783a1.197 1.197 0 0 1 2.394 0v3.815a1.197 1.197 0 0 1 -1.197 1.197" fill-opacity="1" fill-rule="nonzero"/></svg>