<svg xmlns="http://www.w3.org/2000/svg" xmlns:xlink="http://www.w3.org/1999/xlink" width="50" zoomAndPan="magnify" viewBox="0 0 37.5 17.04" height="22.72" preserveAspectRatio="xMidYMid meet" version="1.0"><defs><clipPath id="0951671b64"><path d="M10.225 0.004h17.031v17.031H10.225Zm0 0" clip-rule="nonzero"/></clipPath></defs><path fill="#fa4954" d="M19.484 5.739a0.608 0.608 0 0 1 0.064 0.463 0.608 0.608 0 0 1 -0.282 0.372c-0.291 0.17 -0.665 0.072 -0.835 -0.219l-0.308 -0.527 -1.709 6.53c-0.06 0.231 -0.209 0.415 -0.399 0.527 -0.191 0.111 -0.424 0.15 -0.655 0.09a0.863 0.863 0 0 1 -0.526 -0.399l-0.744 -1.272a0.609 0.609 0 0 1 -0.064 -0.463 0.609 0.609 0 0 1 0.282 -0.372c0.291 -0.17 0.665 -0.072 0.835 0.219l0.308 0.527 1.709 -6.53c0.06 -0.231 0.209 -0.415 0.399 -0.527A0.861 0.861 0 0 1 18.213 4.068a0.865 0.865 0 0 1 0.527 0.399Zm0 0" fill-opacity="1" fill-rule="evenodd"/><path fill="#ebf7ff" d="M20.519 10.72c0 -0.605 -0.494 -1.099 -1.099 -1.099 -0.605 0 -1.099 0.494 -1.099 1.099 0 0.605 0.494 1.099 1.099 1.099 0.605 0 1.099 -0.494 1.099 -1.099m0 0" fill-opacity="1" fill-rule="evenodd"/><path fill="#ebf7ff" d="M20.519 10.72c0 -0.607 -0.492 -1.099 -1.099 -1.099s-1.099 0.492 -1.099 1.099 0.492 1.099 1.099 1.099 1.099 -0.492 1.099 -1.099m-1.776 -9.341c3.945 0 7.143 3.198 7.143 7.143 0 3.945 -3.198 7.143 -7.143 7.143 -3.945 0 -7.143 -3.198 -7.143 -7.143S14.798 1.379 18.743 1.379M19.547 6.202a0.608 0.608 0 0 1 -0.282 0.372c-0.291 0.17 -0.665 0.072 -0.835 -0.218l-0.308 -0.527 -1.709 6.531c-0.06 0.231 -0.209 0.415 -0.399 0.527a0.861 0.861 0 0 1 -0.655 0.09 0.863 0.863 0 0 1 -0.526 -0.399l-0.744 -1.272a0.609 0.609 0 0 1 -0.064 -0.463 0.609 0.609 0 0 1 0.282 -0.372c0.291 -0.17 0.665 -0.072 0.835 0.219l0.308 0.527 1.709 -6.53c0.06 -0.231 0.209 -0.415 0.399 -0.527A0.861 0.861 0 0 1 18.213 4.068a0.864 0.864 0 0 1 0.527 0.399l0.744 1.272a0.608 0.608 0 0 1 0.064 0.463m0 0" fill-opacity="1" fill-rule="evenodd"/><path fill="#0acefa" d="M18.743 0.28c4.552 0 8.242 3.69 8.242 8.242S23.295 16.764 18.743 16.764c-4.552 0 -8.242 -3.69 -8.242 -8.242S14.191 0.28 18.743 0.28M25.886 8.522c0 -3.945 -3.198 -7.143 -7.143 -7.143 -3.945 0 -7.143 3.198 -7.143 7.143 0 3.945 3.198 7.143 7.143 7.143 3.945 0 7.143 -3.198 7.143 -7.143m0 0" fill-opacity="1" fill-rule="evenodd"/><g clip-path="url(#0951671b64)"><path fill="#333333" d="M18.743 17.039c-1.15 0 -2.265 -0.225 -3.315 -0.669 -1.014 -0.429 -1.925 -1.043 -2.707 -1.825 -0.782 -0.782 -1.396 -1.693 -1.825 -2.707 -0.444 -1.05 -0.669 -2.165 -0.669 -3.315 0 -1.15 0.225 -2.265 0.669 -3.315 0.429 -1.014 1.043 -1.925 1.825 -2.707 0.782 -0.782 1.693 -1.396 2.707 -1.825C16.478 0.231 17.593 0.005 18.743 0.005c1.15 0 2.265 0.225 3.315 0.669 1.014 0.429 1.925 1.043 2.707 1.825 0.782 0.782 1.396 1.693 1.825 2.707 0.444 1.05 0.669 2.166 0.669 3.315 0 1.15 -0.225 2.265 -0.669 3.315 -0.429 1.014 -1.043 1.925 -1.825 2.707 -0.782 0.782 -1.693 1.396 -2.707 1.825 -1.05 0.444 -2.165 0.669 -3.315 0.669m0 -16.484c-4.393 0 -7.967 3.574 -7.967 7.967 0 4.393 3.574 7.967 7.967 7.967s7.967 -3.574 7.967 -7.967c0 -4.393 -3.574 -7.967 -7.967 -7.967m0 0" fill-opacity="1" fill-rule="evenodd"/></g><path fill="#333333" d="M18.743 15.94c-1.001 0 -1.973 -0.196 -2.887 -0.583 -0.883 -0.374 -1.677 -0.908 -2.358 -1.589 -0.681 -0.681 -1.216 -1.474 -1.59 -2.358 -0.387 -0.915 -0.583 -1.886 -0.583 -2.887 0 -1.001 0.196 -1.973 0.583 -2.887 0.374 -0.883 0.908 -1.677 1.59 -2.358 0.681 -0.681 1.474 -1.216 2.358 -1.59 0.915 -0.387 1.886 -0.583 2.887 -0.583 1.001 0 1.973 0.196 2.887 0.583 0.883 0.374 1.677 0.908 2.358 1.59 0.681 0.681 1.216 1.474 1.589 2.358 0.387 0.915 0.583 1.886 0.583 2.887s-0.196 1.973 -0.583 2.887c-0.374 0.883 -0.908 1.677 -1.589 2.358 -0.681 0.681 -1.474 1.216 -2.358 1.589 -0.915 0.387 -1.886 0.583 -2.887 0.583m0 -14.286c-3.787 0 -6.868 3.081 -6.868 6.868 0 3.787 3.081 6.868 6.868 6.868 3.787 0 6.868 -3.081 6.868 -6.868 0 -3.787 -3.081 -6.868 -6.868 -6.868m0 0" fill-opacity="1" fill-rule="evenodd"/><path fill="#333333" d="M15.579 13.279a1.146 1.146 0 0 1 -0.29 -0.038c-0.294 -0.077 -0.541 -0.264 -0.694 -0.526l-0.744 -1.272c-0.119 -0.204 -0.152 -0.442 -0.092 -0.671q0 0 0 0c0.06 -0.229 0.205 -0.42 0.409 -0.54 0.204 -0.119 0.442 -0.152 0.671 -0.092 0.212 0.056 0.392 0.185 0.513 0.366l1.542 -5.891c0.077 -0.294 0.264 -0.541 0.526 -0.694 0.262 -0.153 0.569 -0.196 0.863 -0.119s0.541 0.264 0.694 0.526l0.744 1.272c0.119 0.204 0.152 0.442 0.092 0.671 -0.06 0.229 -0.205 0.42 -0.409 0.54 -0.204 0.119 -0.442 0.152 -0.671 0.092 -0.212 -0.055 -0.392 -0.185 -0.513 -0.366l-1.542 5.891c-0.077 0.294 -0.264 0.541 -0.526 0.694 -0.177 0.103 -0.373 0.156 -0.573 0.156m-1.289 -2.368c-0.023 0.087 -0.01 0.177 0.035 0.255l0.744 1.272c0.079 0.136 0.207 0.232 0.359 0.272a0.585 0.585 0 0 0 0.446 -0.061c0.136 -0.079 0.232 -0.207 0.272 -0.359l1.709 -6.53a0.275 0.275 0 0 1 0.228 -0.203 0.275 0.275 0 0 1 0.275 0.133l0.308 0.527a0.334 0.334 0 0 0 0.205 0.155c0.087 0.023 0.177 0.01 0.255 -0.035a0.333 0.333 0 0 0 0.155 -0.205 0.334 0.334 0 0 0 -0.035 -0.255l-0.744 -1.272c-0.079 -0.136 -0.207 -0.232 -0.359 -0.272 -0.152 -0.04 -0.311 -0.018 -0.446 0.061s-0.232 0.207 -0.272 0.359L15.715 11.285a0.275 0.275 0 0 1 -0.503 0.069l-0.308 -0.527a0.332 0.332 0 0 0 -0.205 -0.155 0.334 0.334 0 0 0 -0.255 0.035 0.334 0.334 0 0 0 -0.155 0.205m0 0" fill-opacity="1" fill-rule="evenodd"/><path fill="#333333" d="M19.42 12.093c-0.757 0 -1.374 -0.616 -1.374 -1.374 0 -0.757 0.616 -1.374 1.374 -1.374s1.374 0.616 1.374 1.374c0 0.757 -0.616 1.374 -1.374 1.374m0 -2.198c-0.455 0 -0.824 0.37 -0.824 0.824 0 0.454 0.37 0.824 0.824 0.824 0.454 0 0.824 -0.37 0.824 -0.824 0 -0.455 -0.37 -0.824 -0.824 -0.824m0 0" fill-opacity="1" fill-rule="evenodd"/><path fill="#333333" d="M20.519 10.995c-0.152 0 -0.275 -0.123 -0.275 -0.275V7.972c0 -0.152 0.123 -0.275 0.275 -0.275 0.152 0 0.275 0.123 0.275 0.275v2.747c0 0.152 -0.123 0.275 -0.275 0.275m0 0" fill-opacity="1" fill-rule="evenodd"/><path fill="#333333" d="M23.172 11.819c-0.07 0 -0.141 -0.027 -0.194 -0.081l-1.554 -1.554c-0.107 -0.107 -0.107 -0.281 0 -0.389 0.107 -0.107 0.281 -0.107 0.389 0l1.554 1.554c0.107 0.107 0.107 0.281 0 0.388a0.274 0.274 0 0 1 -0.194 0.081m0 0" fill-opacity="1" fill-rule="evenodd"/><path fill="#333333" d="M21.618 11.819c-0.07 0 -0.141 -0.027 -0.194 -0.081 -0.107 -0.107 -0.107 -0.281 0 -0.389l1.554 -1.554c0.107 -0.107 0.281 -0.107 0.388 0 0.107 0.107 0.107 0.281 0 0.388l-1.554 1.554a0.274 0.274 0 0 1 -0.194 0.081m0 0" fill-opacity="1" fill-rule="evenodd"/></svg>