<svg xmlns="http://www.w3.org/2000/svg" width="50" viewBox="0 0 37.5 17.04" height="22.72" version="1.0"><defs><clipPath id="a"><path d="M10.416 0.13H21.886v16.597H10.416Zm0 0"/></clipPath></defs><g clip-path="url(#a)"><path fill="#040606" d="M21.873 5.501h-1.137V1.371H13.349c0.956 0.558 1.721 1.045 2.524 1.457 0.51 0.262 0.679 0.615 0.675 1.178 -0.024 2.553 -0.01 5.108 -0.01 7.661v0.998H20.702V9.478h1.166c0 1.284 0.019 2.541 -0.007 3.797 -0.012 0.505 -0.391 0.625 -0.831 0.622 -1.197 -0.007 -2.394 -0.003 -3.594 -0.003h-0.903c0 0.715 0.021 1.376 -0.004 2.033 -0.028 0.762 -0.4 0.978 -1.056 0.606 -1.535 -0.868 -3.071 -1.738 -4.577 -2.656 -0.235 -0.143 -0.453 -0.536 -0.456 -0.815 -0.028 -4.042 -0.013 -8.083 -0.024 -12.125 0 -0.58 0.259 -0.797 0.802 -0.797 3.275 0.006 6.55 0.006 9.825 0.003 0.438 0 0.816 0.113 0.822 0.627 0.021 1.557 0.007 3.112 0.007 4.73"/></g><path fill="#040606" d="M23.074 8.31c-0.999 0 -1.897 0.007 -2.796 -0.003 -0.75 -0.007 -1.179 -0.324 -1.122 -0.85 0.071 -0.658 0.532 -0.815 1.106 -0.809 0.9 0.009 1.8 0.001 2.81 0.001 0 -0.45 -0.013 -0.861 0.003 -1.27 0.025 -0.6 0.251 -0.749 0.712 -0.425 1 0.708 1.978 1.446 2.96 2.178 0.309 0.23 0.316 0.483 0 0.717 -1.006 0.741 -2.007 1.49 -3.025 2.213 -0.421 0.299 -0.631 0.077 -0.646 -0.382 -0.013 -0.418 -0.004 -0.837 -0.004 -1.368z"/></svg>