<svg xmlns="http://www.w3.org/2000/svg" xmlns:xlink="http://www.w3.org/1999/xlink" width="50" zoomAndPan="magnify" viewBox="0 0 37.5 17.04" height="22.72" preserveAspectRatio="xMidYMid meet" version="1.0"><defs><clipPath id="bad276d001"><path d="M7.944 0.004H22.512v17.031H7.944Zm0 0" clip-rule="nonzero"/></clipPath><clipPath id="d3bdbdb263"><path d="M7.944 0.004H16.936v17.031H7.944Zm0 0" clip-rule="nonzero"/></clipPath><clipPath id="a61e3ee8cd"><path d="M18.187 0.004h11.359v17.031H18.187Zm0 0" clip-rule="nonzero"/></clipPath><clipPath id="3979e347de"><path d="M18.187 10.318h11.359v6.718H18.187Zm0 0" clip-rule="nonzero"/></clipPath><clipPath id="839db18768"><path d="M20.427 3.491h9.118v6.722H20.427Zm0 0" clip-rule="nonzero"/></clipPath></defs><g clip-path="url(#bad276d001)"><path fill="#5538b7" d="M22.51 0.016 16.919 17.03H13.514L7.944 0.016h3.87L15.209 11.372 18.615 0.016Zm0 0" fill-opacity="1" fill-rule="nonzero"/></g><g clip-path="url(#d3bdbdb263)"><path fill="#ffffff" d="M16.92 17.03H13.514L7.944 0.016h3.87L15.209 11.372Zm0 0" fill-opacity="0.12" fill-rule="nonzero"/></g><g clip-path="url(#a61e3ee8cd)"><path fill="#b968e0" d="M23.784 0.016 22.664 3.419h1.77c0.235 0 0.46 0.045 0.665 0.13a1.535 1.535 0 0 1 0.535 0.37c0.16 0.15 0.28 0.33 0.37 0.535 0.085 0.205 0.13 0.425 0.13 0.665 0 0.235 -0.045 0.465 -0.13 0.675 -0.085 0.205 -0.21 0.385 -0.37 0.545 -0.15 0.15 -0.33 0.27 -0.535 0.355 -0.205 0.085 -0.425 0.13 -0.665 0.13H21.544l-1.12 3.404h4.01c0.235 0 0.46 0.045 0.665 0.13a1.532 1.532 0 0 1 0.535 0.37c0.16 0.15 0.28 0.33 0.37 0.535 0.085 0.205 0.13 0.425 0.13 0.665 0 0.235 -0.045 0.46 -0.13 0.665a1.621 1.621 0 0 1 -0.37 0.545c-0.15 0.15 -0.33 0.27 -0.535 0.355 -0.205 0.085 -0.425 0.13 -0.665 0.13h-5.1v-0.07L18.194 17.02h6.24q1.058 0 1.98 -0.405c0.615 -0.27 1.155 -0.635 1.615 -1.09 0.465 -0.465 0.835 -1.01 1.105 -1.624s0.405 -1.28 0.405 -1.979c0 -0.315 -0.045 -0.64 -0.13 -0.975 -0.08 -0.34 -0.2 -0.665 -0.355 -0.975q-0.24 -0.465 -0.57 -0.84c-0.22 -0.26 -0.47 -0.465 -0.745 -0.615q0.405 -0.247 0.735 -0.63 0.33 -0.382 0.57 -0.84c0.16 -0.31 0.28 -0.63 0.37 -0.96 0.085 -0.33 0.13 -0.655 0.13 -0.975q0 -1.057 -0.405 -1.979c-0.27 -0.615 -0.635 -1.155 -1.105 -1.614 -0.46 -0.465 -0.995 -0.835 -1.615 -1.105Q25.497 0.011 24.439 0.011Zm0 0" fill-opacity="1" fill-rule="nonzero"/></g><g clip-path="url(#3979e347de)"><path fill="#ffffff" d="m18.194 17.02 1.115 -3.394h5.125q1.058 0 1.98 -0.405c0.615 -0.27 1.155 -0.635 1.615 -1.09 0.465 -0.465 0.835 -1.01 1.105 -1.624 0.025 -0.06 0.05 -0.125 0.075 -0.185 0.08 0.2 0.15 0.41 0.2 0.625 0.085 0.33 0.13 0.655 0.13 0.975q0 1.057 -0.405 1.979c-0.27 0.615 -0.635 1.16 -1.105 1.624 -0.46 0.46 -0.995 0.82 -1.615 1.09q-0.923 0.405 -1.98 0.405Zm0 0" fill-opacity="0.12" fill-rule="nonzero"/></g><g clip-path="url(#839db18768)"><path fill="#ffffff" d="m20.429 10.212 1.115 -3.394h2.89q1.058 0 1.98 -0.405c0.615 -0.27 1.155 -0.635 1.615 -1.09 0.465 -0.465 0.835 -1.01 1.105 -1.624 0.025 -0.06 0.05 -0.125 0.075 -0.185 0.08 0.2 0.15 0.41 0.2 0.625 0.085 0.33 0.13 0.655 0.13 0.975q0 1.057 -0.405 1.979c-0.27 0.615 -0.635 1.16 -1.105 1.624 -0.46 0.46 -0.995 0.82 -1.615 1.09q-0.923 0.405 -1.98 0.405Zm0 0" fill-opacity="0.12" fill-rule="nonzero"/></g></svg>