<svg xmlns="http://www.w3.org/2000/svg" xmlns:xlink="http://www.w3.org/1999/xlink" width="50" zoomAndPan="magnify" viewBox="0 0 37.5 17.04" height="22.72" preserveAspectRatio="xMidYMid meet" version="1.0"><defs><clipPath id="24df0e1a9d"><path d="M8.215 0.004H12.038V3.83H8.215Zm0 0" clip-rule="nonzero"/></clipPath><clipPath id="a6b0749fc3"><path d="M14.226 0.547h15.044v2.736H14.226Zm0 0" clip-rule="nonzero"/></clipPath><clipPath id="b72dae480d"><path d="M8.215 6.592H12.038v3.83H8.215Zm0 0" clip-rule="nonzero"/></clipPath><clipPath id="909cec6e54"><path d="M14.226 7.139h15.044v2.71H14.226Zm0 0" clip-rule="nonzero"/></clipPath><clipPath id="cac6776470"><path d="M8.215 13.21H12.038v3.826H8.215Zm0 0" clip-rule="nonzero"/></clipPath><clipPath id="c37fbfb96f"><path d="M14.226 13.757h15.044v2.736H14.226Zm0 0" clip-rule="nonzero"/></clipPath></defs><g clip-path="url(#24df0e1a9d)"><path fill="#ffffff" d="M12.021 1.916c0 0.031 -0.001 0.062 -0.002 0.093a1.902 1.902 0 0 1 -0.007 0.093 1.902 1.902 0 0 1 -0.027 0.185 1.872 1.872 0 0 1 -0.045 0.181 1.798 1.798 0 0 1 -0.029 0.089 1.995 1.995 0 0 1 -0.071 0.173 1.928 1.928 0 0 1 -0.138 0.244 1.98 1.98 0 0 1 -0.054 0.076 1.928 1.928 0 0 1 -0.118 0.144 1.85 1.85 0 0 1 -0.064 0.068 1.746 1.746 0 0 1 -0.068 0.064c-0.023 0.021 -0.047 0.041 -0.071 0.061a1.824 1.824 0 0 1 -0.074 0.058 1.939 1.939 0 0 1 -0.155 0.104 1.928 1.928 0 0 1 -0.165 0.088 2.006 2.006 0 0 1 -0.173 0.071 1.798 1.798 0 0 1 -0.089 0.029 1.876 1.876 0 0 1 -0.181 0.045 1.876 1.876 0 0 1 -0.185 0.027 1.902 1.902 0 0 1 -0.093 0.007 1.902 1.902 0 0 1 -0.093 0.002 1.902 1.902 0 0 1 -0.093 -0.002 1.902 1.902 0 0 1 -0.093 -0.007 1.889 1.889 0 0 1 -0.366 -0.073 1.798 1.798 0 0 1 -0.176 -0.063 1.98 1.98 0 0 1 -0.085 -0.038 1.928 1.928 0 0 1 -0.165 -0.088 1.876 1.876 0 0 1 -0.079 -0.05 1.908 1.908 0 0 1 -0.288 -0.237 1.824 1.824 0 0 1 -0.064 -0.068 1.824 1.824 0 0 1 -0.061 -0.071 1.824 1.824 0 0 1 -0.057 -0.074 1.939 1.939 0 0 1 -0.104 -0.155 1.928 1.928 0 0 1 -0.046 -0.081 1.928 1.928 0 0 1 -0.08 -0.169 1.928 1.928 0 0 1 -0.088 -0.266q-0.011 -0.045 -0.02 -0.091a1.902 1.902 0 0 1 -0.016 -0.092 1.902 1.902 0 0 1 -0.011 -0.093 1.902 1.902 0 0 1 -0.007 -0.093 1.902 1.902 0 0 1 -0.002 -0.093q0 -0.047 0.002 -0.093 0.002 -0.047 0.007 -0.093 0.005 -0.047 0.011 -0.093a1.876 1.876 0 0 1 0.061 -0.273 1.928 1.928 0 0 1 0.063 -0.176q0.018 -0.043 0.038 -0.085a1.928 1.928 0 0 1 0.042 -0.083 1.876 1.876 0 0 1 0.046 -0.081 1.876 1.876 0 0 1 0.05 -0.079 1.798 1.798 0 0 1 0.054 -0.076q0.028 -0.038 0.057 -0.074a1.824 1.824 0 0 1 0.061 -0.071 1.836 1.836 0 0 1 0.132 -0.132 1.824 1.824 0 0 1 0.144 -0.118 1.824 1.824 0 0 1 0.076 -0.054 1.876 1.876 0 0 1 0.16 -0.096 1.824 1.824 0 0 1 0.083 -0.042 1.876 1.876 0 0 1 0.172 -0.071 1.928 1.928 0 0 1 0.089 -0.029 1.798 1.798 0 0 1 0.09 -0.025 1.746 1.746 0 0 1 0.091 -0.02 1.876 1.876 0 0 1 0.092 -0.016 1.902 1.902 0 0 1 0.093 -0.012 1.902 1.902 0 0 1 0.093 -0.007 1.902 1.902 0 0 1 0.093 -0.002q0.047 0 0.093 0.002 0.047 0.002 0.093 0.007a1.902 1.902 0 0 1 0.185 0.027c0.031 0.006 0.061 0.013 0.091 0.02a1.876 1.876 0 0 1 0.179 0.054 1.877 1.877 0 0 1 0.256 0.113 1.824 1.824 0 0 1 0.081 0.046 1.928 1.928 0 0 1 0.155 0.104q0.038 0.028 0.074 0.057c0.024 0.02 0.048 0.04 0.071 0.061q0.035 0.031 0.068 0.064a1.928 1.928 0 0 1 0.125 0.138 2.006 2.006 0 0 1 0.058 0.074q0.028 0.037 0.054 0.076a1.876 1.876 0 0 1 0.096 0.16 1.928 1.928 0 0 1 0.042 0.083 1.951 1.951 0 0 1 0.071 0.173 1.798 1.798 0 0 1 0.029 0.089 1.798 1.798 0 0 1 0.025 0.09q0.011 0.045 0.02 0.091a1.876 1.876 0 0 1 0.027 0.185q0.005 0.046 0.007 0.093 0.002 0.047 0.002 0.093m0 0" fill-opacity="1" fill-rule="nonzero"/></g><g clip-path="url(#a6b0749fc3)"><path fill="#ffffff" d="M14.25 0.566h15.018v2.699H14.25Zm0 0" fill-opacity="1" fill-rule="nonzero"/></g><g clip-path="url(#b72dae480d)"><path fill="#ffffff" d="M12.021 8.498q0 0.047 -0.002 0.093a1.902 1.902 0 0 1 -0.018 0.186 1.876 1.876 0 0 1 -0.016 0.092 1.872 1.872 0 0 1 -0.045 0.181 1.798 1.798 0 0 1 -0.029 0.089 1.995 1.995 0 0 1 -0.071 0.173 1.937 1.937 0 0 1 -0.088 0.165 1.928 1.928 0 0 1 -0.104 0.155 1.922 1.922 0 0 1 -0.118 0.144 1.928 1.928 0 0 1 -0.064 0.068 1.85 1.85 0 0 1 -0.068 0.064 1.928 1.928 0 0 1 -0.221 0.172c-0.026 0.017 -0.052 0.034 -0.079 0.05a1.928 1.928 0 0 1 -0.165 0.088 1.876 1.876 0 0 1 -0.173 0.071 1.798 1.798 0 0 1 -0.089 0.029 1.876 1.876 0 0 1 -0.181 0.045 1.876 1.876 0 0 1 -0.185 0.027 1.902 1.902 0 0 1 -0.093 0.007 1.902 1.902 0 0 1 -0.093 0.002 1.902 1.902 0 0 1 -0.093 -0.002 1.902 1.902 0 0 1 -0.093 -0.007 1.889 1.889 0 0 1 -0.366 -0.073 1.922 1.922 0 0 1 -0.176 -0.063 1.876 1.876 0 0 1 -0.085 -0.038 1.871 1.871 0 0 1 -0.244 -0.138 1.824 1.824 0 0 1 -0.076 -0.054 2.006 2.006 0 0 1 -0.074 -0.058 1.928 1.928 0 0 1 -0.138 -0.125 1.928 1.928 0 0 1 -0.125 -0.138 1.902 1.902 0 0 1 -0.161 -0.229 1.928 1.928 0 0 1 -0.046 -0.081 2.006 2.006 0 0 1 -0.042 -0.083 1.876 1.876 0 0 1 -0.071 -0.172 1.928 1.928 0 0 1 -0.054 -0.179q-0.011 -0.045 -0.02 -0.091a1.876 1.876 0 0 1 -0.016 -0.092 1.876 1.876 0 0 1 -0.011 -0.093 1.902 1.902 0 0 1 -0.007 -0.093 1.902 1.902 0 0 1 -0.002 -0.093q0 -0.047 0.002 -0.093 0.002 -0.047 0.007 -0.093c0.003 -0.031 0.007 -0.062 0.011 -0.093a1.876 1.876 0 0 1 0.061 -0.273 1.928 1.928 0 0 1 0.063 -0.176 1.936 1.936 0 0 1 0.08 -0.169 1.876 1.876 0 0 1 0.046 -0.081 1.798 1.798 0 0 1 0.05 -0.079 1.746 1.746 0 0 1 0.054 -0.076q0.028 -0.038 0.057 -0.074a1.824 1.824 0 0 1 0.061 -0.071 1.85 1.85 0 0 1 0.064 -0.068 1.928 1.928 0 0 1 0.138 -0.125 1.902 1.902 0 0 1 0.074 -0.057 1.85 1.85 0 0 1 0.155 -0.104 1.876 1.876 0 0 1 0.081 -0.046 1.928 1.928 0 0 1 0.169 -0.08 1.928 1.928 0 0 1 0.176 -0.063 1.928 1.928 0 0 1 0.09 -0.025q0.045 -0.011 0.091 -0.02a1.876 1.876 0 0 1 0.092 -0.016 1.902 1.902 0 0 1 0.093 -0.011 1.902 1.902 0 0 1 0.093 -0.007 1.902 1.902 0 0 1 0.093 -0.002q0.047 0 0.093 0.002 0.047 0.002 0.093 0.007 0.046 0.005 0.093 0.011a1.884 1.884 0 0 1 0.362 0.091 1.877 1.877 0 0 1 0.173 0.071 1.928 1.928 0 0 1 0.083 0.042 1.928 1.928 0 0 1 0.16 0.096 1.98 1.98 0 0 1 0.076 0.054q0.038 0.028 0.074 0.057c0.024 0.02 0.048 0.04 0.071 0.061a1.928 1.928 0 0 1 0.193 0.203 2.006 2.006 0 0 1 0.058 0.074q0.028 0.037 0.054 0.076 0.026 0.039 0.05 0.079a1.938 1.938 0 0 1 0.088 0.165 1.98 1.98 0 0 1 0.038 0.085 1.809 1.809 0 0 1 0.063 0.176 1.798 1.798 0 0 1 0.025 0.09q0.011 0.045 0.02 0.091a1.876 1.876 0 0 1 0.027 0.185 1.902 1.902 0 0 1 0.007 0.093q0.002 0.047 0.002 0.093m0 0" fill-opacity="1" fill-rule="nonzero"/></g><g clip-path="url(#909cec6e54)"><path fill="#ffffff" d="M14.25 7.149h15.018v2.699H14.25Zm0 0" fill-opacity="1" fill-rule="nonzero"/></g><g clip-path="url(#cac6776470)"><path fill="#ffffff" d="M12.021 15.119q0 0.047 -0.002 0.093a1.902 1.902 0 0 1 -0.018 0.186 1.876 1.876 0 0 1 -0.016 0.092 1.954 1.954 0 0 1 -0.02 0.091q-0.011 0.045 -0.025 0.09a1.85 1.85 0 0 1 -0.063 0.176 2.058 2.058 0 0 1 -0.038 0.085 2.006 2.006 0 0 1 -0.042 0.083 1.876 1.876 0 0 1 -0.096 0.16 1.902 1.902 0 0 1 -0.054 0.076 2.11 2.11 0 0 1 -0.058 0.074 2.006 2.006 0 0 1 -0.061 0.071 1.926 1.926 0 0 1 -0.132 0.132 1.928 1.928 0 0 1 -0.221 0.172c-0.026 0.017 -0.052 0.034 -0.079 0.05a1.928 1.928 0 0 1 -0.165 0.088A1.876 1.876 0 0 1 10.759 16.91a1.928 1.928 0 0 1 -0.179 0.054c-0.03 0.008 -0.061 0.014 -0.091 0.02 -0.031 0.006 -0.061 0.011 -0.092 0.016a1.902 1.902 0 0 1 -0.373 0.018 1.892 1.892 0 0 1 -0.369 -0.055 1.928 1.928 0 0 1 -0.266 -0.088 1.876 1.876 0 0 1 -0.085 -0.038 1.871 1.871 0 0 1 -0.244 -0.138 1.746 1.746 0 0 1 -0.076 -0.054 1.902 1.902 0 0 1 -0.074 -0.057 1.928 1.928 0 0 1 -0.138 -0.125 1.928 1.928 0 0 1 -0.125 -0.138 1.98 1.98 0 0 1 -0.057 -0.074 1.798 1.798 0 0 1 -0.054 -0.076q-0.026 -0.039 -0.05 -0.079a1.876 1.876 0 0 1 -0.126 -0.25 1.928 1.928 0 0 1 -0.063 -0.176 1.954 1.954 0 0 1 -0.025 -0.09 1.867 1.867 0 0 1 -0.036 -0.183 1.876 1.876 0 0 1 -0.011 -0.093 1.902 1.902 0 0 1 -0.007 -0.093 1.902 1.902 0 0 1 -0.002 -0.093q0 -0.047 0.002 -0.093 0.002 -0.047 0.007 -0.093 0.005 -0.046 0.011 -0.093a1.876 1.876 0 0 1 0.036 -0.183q0.011 -0.045 0.025 -0.09a1.922 1.922 0 0 1 0.063 -0.176 1.928 1.928 0 0 1 0.08 -0.169 1.876 1.876 0 0 1 0.046 -0.081 1.798 1.798 0 0 1 0.05 -0.079 1.798 1.798 0 0 1 0.054 -0.076 1.98 1.98 0 0 1 0.057 -0.074 1.912 1.912 0 0 1 0.264 -0.264 1.902 1.902 0 0 1 0.074 -0.057 1.746 1.746 0 0 1 0.076 -0.054 1.871 1.871 0 0 1 0.244 -0.138 1.876 1.876 0 0 1 0.172 -0.071 1.928 1.928 0 0 1 0.179 -0.054q0.045 -0.011 0.091 -0.02a2.006 2.006 0 0 1 0.092 -0.016 1.891 1.891 0 0 1 0.186 -0.018 1.902 1.902 0 0 1 0.093 -0.002q0.047 0 0.093 0.002a1.902 1.902 0 0 1 0.186 0.018 2.006 2.006 0 0 1 0.092 0.016c0.031 0.006 0.061 0.013 0.091 0.02q0.045 0.011 0.09 0.025a1.928 1.928 0 0 1 0.176 0.063 1.932 1.932 0 0 1 0.25 0.126 1.876 1.876 0 0 1 0.155 0.104q0.038 0.028 0.074 0.057a1.928 1.928 0 0 1 0.071 0.061 1.928 1.928 0 0 1 0.193 0.203 2.11 2.11 0 0 1 0.058 0.074q0.028 0.038 0.054 0.076 0.026 0.039 0.05 0.079a1.876 1.876 0 0 1 0.046 0.081 2.006 2.006 0 0 1 0.042 0.083 2.058 2.058 0 0 1 0.038 0.085 1.841 1.841 0 0 1 0.063 0.176q0.014 0.045 0.025 0.09c0.008 0.03 0.014 0.061 0.02 0.091a1.876 1.876 0 0 1 0.027 0.185 1.902 1.902 0 0 1 0.007 0.093q0.002 0.047 0.002 0.093m0 0" fill-opacity="1" fill-rule="nonzero"/></g><g clip-path="url(#c37fbfb96f)"><path fill="#ffffff" d="M14.25 13.769h15.018v2.699H14.25Zm0 0" fill-opacity="1" fill-rule="nonzero"/></g></svg>