<svg xmlns="http://www.w3.org/2000/svg" xmlns:xlink="http://www.w3.org/1999/xlink" width="150" zoomAndPan="magnify" viewBox="0 0 112.5 51.12" height="68.16" preserveAspectRatio="xMidYMid meet" version="1.0"><defs><clipPath id="192ba31542"><path d="M31.92 0.012h48.576v51.092H31.92Zm0 0" clip-rule="nonzero"/></clipPath></defs><path fill="#000000" d="M56.208 12.66c-5.366 0 -9.716 4.572 -9.716 10.208s4.35 10.212 9.716 10.212 9.714 -4.572 9.714 -10.212 -4.35 -10.208 -9.714 -10.208" fill-opacity="1" fill-rule="nonzero"/><g clip-path="url(#192ba31542)"><path fill="#000000" d="M72.342 43.182c-2.15 -5.256 -6.668 -8.544 -16.15 -8.544 -9.468 0 -13.986 3.278 -16.14 8.522 -4.386 -4.448 -7.112 -10.69 -7.112 -17.6C32.94 12.054 43.36 1.104 56.212 1.104S79.48 12.054 79.48 25.56c0 6.924 -2.736 13.174 -7.134 17.622M56.208 0.034c-13.414 0 -24.288 11.43 -24.288 25.528 0 7.374 2.976 14.016 7.734 18.678 4.338 4.248 10.158 6.85 16.558 6.85 6.388 0 12.198 -2.592 16.534 -6.828 4.77 -4.662 7.754 -11.312 7.754 -18.698C80.496 11.468 69.622 0.036 56.21 0.036" fill-opacity="1" fill-rule="nonzero"/></g></svg>